<svg  width="100%" viewBox="0 0 123 117" fill="none" xmlns="http://www.w3.org/2000/svg" style="display: none; width: 0;height: 0;" aria-hidden="true">
       
            <g filter="url(#filter0_d_827_290)">
                <path d="M0 0H102.111V67.1632C102.111 83.1794 89.1277 96.1632 73.1114 96.1632H0V0Z" fill="#E08F40" />
                <path d="M67.82 43.5984C63.3955 43.8039 62.8692 46.1215 60.5861 43.9571C58.268 41.7598 57.3175 41.5729 54.4892 41.3329C51.6604 41.0931 50.4929 39.7714 50.6105 39.1708C50.7294 38.5705 51.5679 38.6745 51.4917 38.3128C51.3565 37.6741 49.0261 37.8495 48.6292 36.5975C48.224 35.3189 48.076 34.6926 47.8514 33.9801C47.2229 31.9916 48.3421 31.4578 48.3421 31.4578C50.5591 30.5649 53.0022 29.4286 55.4545 27.9502C56.7266 27.1836 55.0648 25.6342 57.6106 24.2869C59.2327 23.429 60.8945 22.6397 62.585 21.9073C62.5979 21.8942 62.6085 21.8817 62.6253 21.8692C63.2772 21.4077 64.4705 20.7587 64.4705 19.802C64.4705 17.6772 66.1709 15.9546 68.269 15.9546C69.3676 15.9546 70.3333 16.4497 71.0506 17.1821C72.3926 18.5511 73.7714 17.981 74.495 17.9345C74.5124 17.9333 74.5236 17.9356 74.5393 17.9351C78.627 16.9659 82.8451 16.3379 87.161 16.0789V7.4668H27.6112V7.50154H26.9717V42.0091V87.8626H49.0284H67.7308C75.894 87.5798 94.4352 85.2309 94.4352 66.0882C94.4352 49.2789 82.454 44.0508 67.82 43.5984Z" fill="white" />
                <path d="M47.4443 58.5983V57.1659C47.4443 56.1365 47.6679 55.2002 48.1149 54.3568C48.5619 53.5135 49.22 52.8376 50.0893 52.3291C50.9585 51.8206 52.0264 51.5664 53.293 51.5664C54.5968 51.5664 55.6833 51.8206 56.5526 52.3291C57.4342 52.8376 58.0923 53.5135 58.527 54.3568C58.974 55.2002 59.1975 56.1365 59.1975 57.1659V58.5983C59.1975 59.6029 58.974 60.5268 58.527 61.3701C58.0923 62.2135 57.4404 62.8894 56.5712 63.3979C55.702 63.9063 54.6279 64.1606 53.3489 64.1606C52.0574 64.1606 50.9709 63.9063 50.0893 63.3979C49.22 62.8894 48.5619 62.2135 48.1149 61.3701C47.6679 60.5268 47.4443 59.6029 47.4443 58.5983ZM51.0019 57.1659V58.5983C51.0019 59.0324 51.0827 59.4478 51.2441 59.8447C51.4179 60.2292 51.6787 60.5454 52.0264 60.7935C52.3865 61.0291 52.8211 61.1469 53.3302 61.1469C53.8642 61.1469 54.2988 61.0291 54.6341 60.7935C54.9693 60.5454 55.2177 60.2292 55.3791 59.8447C55.5405 59.4478 55.6213 59.0324 55.6213 58.5983V57.1659C55.6213 56.707 55.5343 56.2853 55.3605 55.9009C55.1991 55.504 54.9445 55.1878 54.5968 54.9521C54.2615 54.7041 53.8269 54.5801 53.293 54.5801C52.7963 54.5801 52.3741 54.7041 52.0264 54.9521C51.6787 55.1878 51.4179 55.504 51.2441 55.9009C51.0827 56.2853 51.0019 56.707 51.0019 57.1659ZM60.4082 73.8341V72.4017C60.4082 71.3847 60.6317 70.4546 61.0788 69.6112C61.5382 68.7679 62.2025 68.092 63.0718 67.5835C63.9534 67.075 65.0337 66.8208 66.3127 66.8208C67.6041 66.8208 68.6845 67.075 69.5537 67.5835C70.4229 68.092 71.081 68.7679 71.5281 69.6112C71.9751 70.4546 72.1986 71.3847 72.1986 72.4017V73.8341C72.1986 74.8511 71.9751 75.7812 71.5281 76.6245C71.0935 77.4679 70.4415 78.1438 69.5723 78.6523C68.7031 79.1607 67.629 79.415 66.35 79.415C65.0586 79.415 63.972 79.1607 63.0904 78.6523C62.2087 78.1438 61.5382 77.4679 61.0788 76.6245C60.6317 75.7812 60.4082 74.8511 60.4082 73.8341ZM63.9844 72.4017V73.8341C63.9844 74.2806 64.0838 74.7022 64.2825 75.0991C64.4811 75.496 64.7543 75.8122 65.102 76.0478C65.4621 76.2835 65.8781 76.4013 66.35 76.4013C66.946 76.4013 67.4117 76.2835 67.7469 76.0478C68.0822 75.8122 68.3119 75.496 68.4361 75.0991C68.5727 74.7022 68.641 74.2806 68.641 73.8341V72.4017C68.641 71.9552 68.5541 71.5397 68.3802 71.1553C68.2064 70.7584 67.9456 70.4422 67.5979 70.2065C67.2627 69.9585 66.8343 69.8345 66.3127 69.8345C65.7912 69.8345 65.3566 69.9585 65.0089 70.2065C64.6736 70.4422 64.4191 70.7584 64.2452 71.1553C64.0714 71.5397 63.9844 71.9552 63.9844 72.4017ZM67.6352 55.8265L54.3919 76.9966L51.7843 75.62L65.0275 54.4499L67.6352 55.8265Z" fill="#E08F40" />
                <path d="M17.2585 83.5255L11.0443 81.1203L11.0443 79.1447L18.8733 82.4617C19.1248 82.5718 19.3675 82.6973 19.6013 82.8383C19.8351 82.9792 20.0447 83.1488 20.23 83.3471C20.4109 83.5409 20.5543 83.7765 20.6602 84.0541C20.7661 84.3272 20.819 84.6575 20.819 85.0452C20.819 85.1465 20.8146 85.2676 20.8058 85.4086C20.8014 85.5496 20.7947 85.6575 20.7859 85.7324L19.3564 85.7324C19.3697 85.6795 19.3785 85.5936 19.3829 85.4747C19.3873 85.3513 19.3895 85.2632 19.3895 85.2104C19.3895 84.9549 19.3498 84.7522 19.2704 84.6025C19.1866 84.4483 19.0741 84.3272 18.9329 84.2391C18.7873 84.1466 18.6218 84.0651 18.4365 83.9946L17.2585 83.5255ZM11.0443 85.2302L16.0938 82.9242L18.0593 82.3824L18.099 83.7633L11.0443 87.1992L11.0443 85.2302Z" fill="white" />
                <path d="M11.0443 77.0152L11.0443 75.1915L14.0157 75.1915C14.4569 75.1915 14.8011 75.1255 15.0481 74.9933C15.2952 74.8568 15.4695 74.6519 15.5709 74.3788C15.6724 74.1057 15.7232 73.7665 15.7232 73.3613C15.7232 73.1851 15.7143 72.9912 15.6967 72.7798C15.679 72.564 15.657 72.3459 15.6305 72.1257C15.5996 71.901 15.5621 71.6874 15.518 71.4847C15.4739 71.2777 15.4254 71.0971 15.3724 70.9429L16.8085 70.9429C16.857 71.0971 16.9034 71.2755 16.9475 71.4781C16.9916 71.6764 17.0291 71.8856 17.06 72.1058C17.0909 72.3217 17.1151 72.5397 17.1328 72.76C17.146 72.9758 17.1526 73.1763 17.1526 73.3613C17.1526 74.1057 17.0446 74.7532 16.8284 75.3039C16.6122 75.8501 16.2747 76.273 15.8158 76.5725C15.3526 76.8676 14.7525 77.0152 14.0157 77.0152L11.0443 77.0152ZM11.0443 71.3394L11.0443 69.5157L20.68 69.5157L20.68 71.3394L11.0443 71.3394Z" fill="white" />
                <path d="M12.5068 62.7544L20.68 65.4965L20.68 67.4193L11.0443 63.8248L11.0442 62.5958L12.5068 62.7544ZM20.68 60.4616L12.5068 63.2169L11.0442 63.3821L11.0442 62.1465L20.68 58.5322L20.68 60.4616ZM17.0997 60.5871L18.5358 60.5871L18.5358 65.7476L17.0997 65.7476L17.0997 60.5871Z" fill="white" />
                <path d="M17.51 51.0639L17.51 49.2468C18.1542 49.2952 18.7255 49.4737 19.2241 49.782C19.7182 50.0904 20.1065 50.5198 20.3888 51.0705C20.6712 51.6211 20.8124 52.2884 20.8124 53.0725C20.8124 53.676 20.7065 54.22 20.4947 54.7046C20.2785 55.1847 19.9719 55.5966 19.5748 55.9402C19.1733 56.2794 18.6924 56.5393 18.1321 56.7199C17.5674 56.9005 16.9343 56.9908 16.2327 56.9908L15.4982 56.9908C14.7966 56.9908 14.1635 56.8983 13.5988 56.7132C13.0341 56.5282 12.5531 56.2639 12.1561 55.9204C11.7546 55.5724 11.4457 55.1561 11.2296 54.6715C11.0134 54.1826 10.9053 53.6364 10.9053 53.0329C10.9053 52.2488 11.0509 51.5858 11.3421 51.044C11.6288 50.5022 12.0237 50.0815 12.5267 49.782C13.0296 49.4825 13.6076 49.3019 14.2606 49.2402L14.2606 51.0572C13.8547 51.0925 13.5106 51.1806 13.2282 51.3215C12.9458 51.4581 12.7318 51.6651 12.5862 51.9426C12.4362 52.2158 12.3612 52.5792 12.3612 53.0329C12.3612 53.3853 12.4274 53.6958 12.5598 53.9645C12.6921 54.2288 12.8907 54.4491 13.1554 54.6253C13.4157 54.8015 13.7422 54.9336 14.1348 55.0217C14.5231 55.1098 14.9731 55.1539 15.4849 55.1539L16.2327 55.1539C16.7225 55.1539 17.1615 55.1142 17.5497 55.0349C17.938 54.9557 18.2667 54.8323 18.5358 54.6649C18.8049 54.4975 19.0101 54.2817 19.1513 54.0174C19.2925 53.7531 19.3631 53.4381 19.3631 53.0725C19.3631 52.6276 19.2925 52.2664 19.1513 51.9889C19.0101 51.707 18.8027 51.4933 18.5292 51.348C18.2556 51.1982 17.9159 51.1035 17.51 51.0639Z" fill="white" />
                <path d="M11.0442 42.9414L20.68 42.9414L20.68 44.7518L11.0442 44.7518L11.0442 42.9414ZM11.0442 39.9548L12.4804 39.9548L12.4804 47.7054L11.0442 47.7054L11.0442 39.9548Z" fill="white" />
                <path d="M15.0217 31.3962L16.4511 31.3962L16.4511 36.4575L15.0217 36.4575L15.0217 31.3962ZM11.0442 35.962L20.68 35.962L20.68 37.779L11.0442 37.779L11.0442 35.962ZM11.0442 30.0483L20.68 30.0483L20.68 31.8653L11.0442 31.8653L11.0442 30.0483Z" fill="white" />
                <path d="M17.7681 25.4542L11.0442 21.3906L11.0442 19.5669L20.68 19.5669L20.68 21.3906L13.9562 21.3906L20.68 25.4542L20.68 27.2713L11.0442 27.2713L11.0442 25.4542L17.7681 25.4542Z" fill="white" />
                <path d="M11.0442 14.9134L20.68 14.9134L20.68 16.7304L11.0442 16.7304L11.0442 14.9134ZM11.0442 9.1847L16.6166 12.984L16.6166 15.3693L15.015 15.6072L15.015 13.9685L11.0442 11.3982L11.0442 9.1847ZM20.68 11.0546L16.3254 13.9553L14.9819 12.7329L20.68 8.88075L20.68 11.0546Z" fill="white" />
            </g>
            <defs>
                <filter id="filter0_d_827_290" x="-20" y="-15" width="142.111" height="136.164" filterUnits="userSpaceOnUse" color-interpolation-filters="sRGB">
                    <feFlood flood-opacity="0" result="BackgroundImageFix" />
                    <feColorMatrix in="SourceAlpha" type="matrix" values="0 0 0 0 0 0 0 0 0 0 0 0 0 0 0 0 0 0 127 0" result="hardAlpha" />
                    <feOffset dy="5" />
                    <feGaussianBlur stdDeviation="10" />
                    <feComposite in2="hardAlpha" operator="out" />
                    <feColorMatrix type="matrix" values="0 0 0 0 0 0 0 0 0 0 0 0 0 0 0 0 0 0 0.2 0" />
                    <feBlend mode="normal" in2="BackgroundImageFix" result="effect1_dropShadow_827_290" />
                    <feBlend mode="normal" in="SourceGraphic" in2="effect1_dropShadow_827_290" result="shape" />
                </filter>
            </defs>
        </svg>